HIERARCHY
ROOT pelvis
{
  OFFSET 0 100 0
  CHANNELS 6 Xposition Yposition Zposition Zrotation Xrotation Yrotation
  JOINT pelvis_right_femur
  {
    OFFSET -10.78128 -3.44521 -0.5502486
    CHANNELS 3 Zrotation Xrotation Yrotation
    JOINT right_femur_tibia
    {
      OFFSET -0.8047443 -44.0398 -0.1307829
      CHANNELS 3 Zrotation Xrotation Yrotation
      JOINT right_tibia_foot
      {
        OFFSET 3.006224 -47.83518 -5
        CHANNELS 3 Zrotation Xrotation Yrotation
        End Site
        {
          OFFSET 0 -5 15
        }
      }
    }
  }
  JOINT pelvis_left_femur
  {
    OFFSET 10.78128 -3.44521 -0.5502486
    CHANNELS 3 Zrotation Xrotation Yrotation
    JOINT left_femur_tibia
    {
      OFFSET 0.8047443 -44.0398 -0.1307829
      CHANNELS 3 Zrotation Xrotation Yrotation
      JOINT left_tibia_foot
      {
        OFFSET -4.370144 -48.10324 -4.275266
        CHANNELS 3 Zrotation Xrotation Yrotation
        End Site
        {
          OFFSET 0 -5 15
        }
      }
    }
  }
  JOINT pelvis_spine1
  {
    OFFSET 0 6.468898 -3.129235
    CHANNELS 3 Zrotation Xrotation Yrotation
    JOINT spine1
    {
      OFFSET 0 23.15396 4.99043
      CHANNELS 3 Zrotation Xrotation Yrotation
      JOINT spine2
      {
        OFFSET 0 20.79997 -5.064912
        CHANNELS 3 Zrotation Xrotation Yrotation
        JOINT neck
        {
          OFFSET 0 14.38658 9.616178
          CHANNELS 3 Zrotation Xrotation Yrotation
          End Site
          {
            OFFSET 0 20 0
          }
        }
      }
      JOINT right_manubrium
      {
        OFFSET -5.722621 16.35077 3.967754
        CHANNELS 3 Zrotation Xrotation Yrotation
        JOINT right_clavicle
        {
          OFFSET -13.16364 1.694482 -4.693211
          CHANNELS 3 Zrotation Xrotation Yrotation
          JOINT right_humerus
          {
            OFFSET -28.5034 -0.3100689 -2.792744
            CHANNELS 3 Zrotation Xrotation Yrotation
            JOINT right_radius
            {
              OFFSET -25.15693 0.02248979 -1.271978
              CHANNELS 3 Zrotation Xrotation Yrotation
              End Site
              {
                OFFSET -15 0 0
              }
            }
          }
        }
      }
      JOINT left_manubrium
      {
        OFFSET 5.722621 16.35077 3.967754
        CHANNELS 3 Zrotation Xrotation Yrotation
        JOINT left_clavicle
        {
          OFFSET 13.16364 1.694482 -4.693211
          CHANNELS 3 Zrotation Xrotation Yrotation
          JOINT left_humerus
          {
            OFFSET 29.39168 -1.063119 -2.237045
            CHANNELS 3 Zrotation Xrotation Yrotation
            JOINT left_radius
            {
              OFFSET 24.59957 -0.9528479 0.9047498
              CHANNELS 3 Zrotation Xrotation Yrotation
              End Site
              {
                OFFSET 15 -0 -0
              }
            }
          }
        }
      }
    }
  }
}
MOTION
Frames: 11
Frame Time: 0.0416666666667
24.43041 101.0423 281.0557 -0.6663298 -0.7565945 -1.783239 2.493041 8.877458 6.341769 -0 41.78675 -0 12.17075 -6.992253 -2.122559 0.3875809 -29.24793 -6.730682 -0 29.63998 -0 -6.848402 -10.21132 14.69388 0.01739236 -5.970894 8.28365 -2.163359 10.39284 -2.023453 3.086141 20.45867 4.665783 3.415613 -18.48713 6.256336 0.6362785 -20.56536 10.67255 82.08814 20.80639 -5.016581 -0 0 23.51565 -24.56116 8.538984 14.83193 3.895527 -12.1149 -3.57921 -92.9821 21.8633 24.53356 0 0 -7.168887 -3.414617 6.958131 16.3458
25.47613 101.9024 288.3338 -0.5492668 -0.6341795 -0.4540543 2.412268 5.00485 5.170387 -0 50.611 -0 12.26365 -4.975383 -4.329172 -1.116175 -25.16907 -7.882826 -0 30.09128 -0 -6.25295 -12.46485 14.10515 -0.1351636 -6.529762 7.653626 -1.789995 10.26102 -2.335126 3.130943 20.85069 4.667119 3.365309 -18.51347 6.387058 1.258724 -19.51351 10.70536 82.89257 21.05341 -6.440555 -0 0 20.70417 -23.85929 8.637006 14.05239 3.672071 -12.69387 -3.840934 -91.60313 22.55611 22.41821 0 0 -7.855002 -3.201201 7.338927 16.22045
26.49156 103.4344 295.1384 -0.4614608 -0.537756 0.5768094 2.077074 -1.852033 4.264446 -0 57.11331 -0 11.39285 -5.922519 -6.22944 -2.162993 -20.25597 -8.713078 -0 29.07993 -0 -5.850444 -14.29751 13.58223 -0.3075375 -7.017882 6.672728 -1.334619 10.00761 -2.834441 3.052452 21.54677 4.770513 3.244386 -18.33703 6.55814 1.990132 -18.65161 10.71871 83.89115 21.47816 -7.899471 -0 0 17.79961 -22.97509 8.842066 13.23361 3.504864 -13.83396 -4.116111 -89.58084 23.25608 19.25324 0 0 -9.352815 -2.651346 7.838207 15.72269
27.396 105.0526 301.3624 -0.3769208 -0.4422739 1.584944 2.495676 -9.455285 3.732953 -0 58.94487 -0 10.02964 -6.77752 -6.923254 -2.636206 -14.99665 -9.203675 -0 26.71279 -0 -5.73344 -15.52733 12.87512 -0.4094011 -7.211989 5.413801 -0.9502136 9.787757 -3.535616 2.877209 22.29413 4.97305 3.071733 -17.94799 6.771019 2.300531 -17.83679 10.61871 85.07562 21.90771 -9.352631 -0 0 15.43871 -22.09419 9.028489 12.58714 3.590622 -14.99551 -4.390518 -87.29239 23.83039 15.61574 0 0 -11.21556 -1.970409 8.32383 15.05039
28.18729 106.5076 307.454 -0.2438709 -0.2908028 3.189441 3.105613 -17.17388 3.722102 -0 56.05149 -0 8.097602 -7.64788 -7.136117 -2.87694 -9.887939 -9.696716 -0 23.43098 -0 -5.783783 -16.45537 12.0768 -0.5431524 -7.153828 3.928416 -0.6006437 9.656699 -4.712406 2.734281 23.0719 5.137978 2.92304 -17.38419 6.946833 2.103745 -16.89234 10.12417 86.31633 22.20361 -11.00301 -0 0 13.56042 -21.28635 9.120244 12.10596 3.878635 -16.18023 -4.585749 -84.79149 24.22461 11.70487 0 0 -13.37352 -1.180025 8.799971 14.20858
28.94236 106.9501 313.4892 -0.06493962 -0.07949217 5.405122 2.995818 -21.93817 3.600081 -0 49.84418 -0 6.577055 -7.103207 -7.931975 -3.091003 -4.764329 -10.16981 -0 20.60181 -0 -5.808777 -17.56309 11.2855 -0.7963232 -7.61257 2.778257 -0.2743916 9.11704 -5.863209 2.852168 23.35403 5.266138 2.904335 -17.21919 7.303739 1.430952 -15.49795 9.439023 87.55304 22.34717 -13.02906 -0 0 11.78122 -20.51569 9.132593 11.65917 4.386451 -17.05953 -4.62492 -82.34232 24.42858 7.936494 0 0 -15.65528 -0.3696926 9.288593 13.16001
29.59877 106.7013 319.2632 0.07502033 0.0936325 7.195949 1.810568 -26.34013 3.047777 -0 40.85237 -0 5.23861 -6.842583 -9.342719 -2.981015 -0.287789 -10.58318 -0 18.47913 -0 -5.759632 -18.96761 10.56182 -1.123128 -7.570807 1.900914 0.1412572 8.727175 -6.765523 3.101357 23.67951 5.222249 2.960738 -17.09924 7.551207 0.8420009 -14.41468 9.03587 88.40434 22.44481 -14.74598 -0 0 10.07882 -19.76012 9.105557 11.14291 4.670598 -18.07205 -4.912516 -80.05181 24.4821 3.920574 0 0 -18.26903 0.4373037 9.823102 11.85896
30.27453 105.5386 325.4875 0.1853475 0.234758 8.644555 0.596238 -30.58425 2.172845 -0 31.20441 -0 3.861704 -6.917251 -11.37435 -2.819344 3.908231 -10.86629 -0 17.5952 -0 -5.640354 -20.61984 10.01093 -1.310372 -7.605919 1.309003 0.570549 8.329736 -7.485752 3.284657 23.79119 5.118433 2.97537 -17.22118 7.668959 0.2035576 -13.13747 8.738253 89.1861 22.50103 -16.52439 -0 0 8.150085 -18.97962 9.087918 10.54441 5.092734 -19.06001 -5.144213 -77.89162 24.42237 0.1439819 0 0 -20.83059 1.302149 10.38841 10.52235
30.7847 104.0324 331.5383 0.221217 0.2799313 9.115663 -0.02252796 -33.04729 0.7925332 -0 22.15023 -0 2.313033 -7.923535 -12.76056 -2.638833 7.345628 -10.99152 -0 18.18493 -0 -5.590767 -22.02906 9.772661 -1.329371 -7.210218 1.229908 0.9092336 7.952656 -7.688926 3.427466 23.82168 4.938462 2.969114 -17.49652 7.651115 -0.2287797 -12.16137 8.834219 89.73582 22.5929 -17.82774 -0 0 6.200182 -18.18712 9.097376 9.842187 5.460931 -20.06273 -5.245233 -75.95088 24.21492 -3.147202 0 0 -23.19309 2.226142 10.94439 9.222847
31.28316 102.5001 337.8845 0.2266399 0.2850499 9.180005 0.1819079 -34.08816 0.2217762 -0 15.92869 -0 0.838808 -9.285724 -13.37617 -2.521744 10.2791 -10.96705 -0 20.22173 -0 -5.790945 -22.48328 9.79244 -1.132199 -6.840525 1.224588 1.16687 7.648103 -7.619873 3.419491 23.86209 4.764564 2.889749 -17.7984 7.503804 -0.4578014 -11.39891 9.133221 90.16256 22.69382 -18.66756 -0 0 4.395082 -17.34586 9.154699 9.120456 5.718934 -20.72376 -5.205345 -74.64729 23.99763 -5.424655 0 0 -24.97889 3.112849 11.45653 8.112903
31.73467 101.4314 345.2192 0.2218366 0.2771936 9.110769 1.095605 -33.45756 0.6039206 -0 16.15892 -0 -0.3281316 -9.722914 -13.9371 -2.315969 12.48011 -11.04057 -0 24.04465 -0 -6.331286 -21.31428 10.14983 -0.8445923 -7.062514 1.25627 1.305575 7.715416 -7.354297 3.377069 24.1266 4.502091 2.806242 -17.95287 7.195737 -0.538169 -10.30335 9.291459 90.78706 22.69283 -19.43536 -0 0 2.761598 -16.48473 9.258771 8.43087 5.84417 -20.79594 -4.725499 -74.28504 23.98079 -6.279488 0 0 -25.88524 3.796954 11.91701 7.319034
